# xmcd CD database file
#
# Track frame offsets:
#	150
#	20559
#	30072
#	53278
#	71471
#	86330
#	104401
#	122252
#	139819
#	162030
#	181632
#	200562
#	217364
#	243682
#	264444
#	290235
#	302959
#	313327
#	332384
#
# Disc length: 4744 seconds
#
# Revision: 1
# Processed by: cddbd v1.5.2PL0 Copyright (c) Steve Scherf et al.
# Submitted via: CDex 1.51
#
DISCID=0a128613
DTITLE=Various Artist - Cool Jazz [CD 1)
DYEAR=2011
DGENRE=Jazz
TTITLE0=Jamie Cullum - It Ain't Necessarily So
TTITLE1=Michael Buble - Me and Mrs You
TTITLE2=Sara Lazarus - Dans Mon île
TTITLE3=Ida Sand - Here Comes The Rain
TTITLE4=Youn Sun Nah - Uncertain Weather
TTITLE5=Nils Landgren - Killing Me Softly
TTITLE6=Anne Curos - Over The Rainbow
TTITLE7=Diana Krall - Straighten Up And Fly Right
TTITLE8=Ahmad Jamal - It's Magic
TTITLE9=Norah Jones and Joel Harrison - Tennesee Waltz
TTITLE10=Rigmor Gustafsson - Is It A Crime
TTITLE11=Teréz Montcalm - Love
TTITLE12=Michel Petrucciani - Why
TTITLE13=Yaron Herman - Heart Shaped Box
TTITLE14=Elisabeth Kontomanou and Laurent Coq - The Good Life
TTITLE15=Kellylee Evans - Ain't Got No - I Got Life
TTITLE16=Susie Arioli - Honeysuckle Rose
TTITLE17=Clare Teal - The Way You Look Tonight
TTITLE18=Avishai Cohen - Remembering
EXTD=YEAR: 2011
EXTT0=
EXTT1=
EXTT2=
EXTT3=
EXTT4=
EXTT5=
EXTT6=
EXTT7=
EXTT8=
EXTT9=
EXTT10=
EXTT11=
EXTT12=
EXTT13=
EXTT14=
EXTT15=
EXTT16=
EXTT17=
EXTT18=
PLAYORDER=
